<?xml version="1.0" encoding="utf-8"?>
<!-- Generator: Adobe Illustrator 24.0.1, SVG Export Plug-In . SVG Version: 6.00 Build 0)  -->
<svg version="1.1" id="Layer_1" xmlns="http://www.w3.org/2000/svg" xmlns:xlink="http://www.w3.org/1999/xlink" x="0px" y="0px"
	 viewBox="0 0 1920 1445" style="enable-background:new 0 0 1920 1445;" xml:space="preserve">
<style type="text/css">
	.st0{opacity:0.8;}
	.st1{opacity:0.5;}
	.st2{opacity:0.7;}
	.st3{fill:#454545;}
	.st4{fill:#FFFFFF;}
	.st5{fill:#363636;}
</style>
<g class="st0">
	<path d="M1158.2,433.6c8.1-17.1,18-29,29.8-35.6c11.8-6.6,23.6-7.2,35.4-1.6c16.6,7.8,24.6,25.2,23.9,52.1
		c13-11.2,24.5-18.1,34.3-20.7c9.8-2.7,19.1-1.9,27.7,2.1c13.4,6.3,21.5,16.9,24.4,31.6c2.9,14.8-0.1,31.5-8.9,50.2
		c-9.3,19.6-20.2,33-32.8,40.2c-12.6,7.2-25.9,7.6-39.7,1.1c-9-4.3-15.8-10.9-20.3-19.9c-4.5-9-6.6-21.3-6.1-36.8
		c-11.1,8.2-21.1,13.2-29.9,14.7c-8.8,1.6-17.3,0.4-25.5-3.4c-11.7-5.5-18.7-15.1-20.8-28.7C1147.5,465.2,1150.4,450.1,1158.2,433.6
		z M1264.5,524.7c7.7,3.6,15.1,3.4,22.2-0.6c7.1-4,13.1-11.2,17.9-21.4c5-10.6,6.7-19.9,5.1-27.9c-1.6-8-6.2-13.7-13.7-17.3
		c-6-2.8-12.7-2.7-20.2,0.4c-7.5,3.1-16,9.2-25.4,18.2l-3.1,2.9c-0.8,12.9,0.2,22.9,3,30.1C1253.1,516.4,1257.8,521.6,1264.5,524.7z
		 M1178.1,443.3c-3.9,8.2-5.2,15.7-3.9,22.5c1.3,6.8,5.1,11.6,11.3,14.6c3.8,1.8,7.7,2.5,11.6,2.1c3.9-0.4,7.9-1.7,12-4
		c4.1-2.3,9.8-6.7,17.2-13.3c0.8-11.7-0.1-20.7-2.5-26.8c-2.4-6.1-6.5-10.5-12.2-13.3c-6.3-3-12.4-2.8-18.5,0.6
		S1182.1,434.9,1178.1,443.3z"/>
</g>
<path class="st1" d="M1030.6,1270.8c13.7-13.7,25.9-28.8,36.5-45.3c27.3-42.5,42.4-90.5,45.1-144c2.5-48.5-7.4-90.3-29.8-125.4
	c-22.4-35.1-54.6-60.8-96.7-77.1c54.2-22.1,95.2-51.1,122.9-86.8c27.8-35.7,42.8-74.9,45-117.7c3-57.5-17.1-107.3-60.2-149.4
	c-43.1-42.1-99.9-63.2-170.5-63.2c-48.4,0-93.7,10.6-135.9,31.8c-42.2,21.2-75.4,50-99.5,86.5c-24.1,36.5-37.2,75-39.3,115.3
	c-2.1,40,7.3,77.1,28.2,111.3c12.9,21.4,32.8,40.2,59.7,56.5c-43.3,15.5-78.4,35-105.1,58.5c-26.8,23.5-48.8,52.7-66.2,87.8
	c-17.4,35.1-27,70.5-28.9,106.2c-3,59.1,13.8,110.7,50.6,154.9H1030.6z M804.4,710.4c1.4-27.2,12.3-50.5,32.9-69.8
	c20.5-19.3,45.4-28.9,74.6-28.9c25,0,44.6,7.8,58.8,23.4c14.2,15.6,20.6,36.8,19.3,63.6c-1.4,27.6-12.4,51-32.9,70.1
	c-20.5,19.1-44.8,28.6-72.8,28.6c-25.4,0-45.3-8.2-59.9-24.5C809.7,756.5,803.1,735.7,804.4,710.4z M697.3,1096.5
	c2.2-43.1,17.8-79.1,46.8-108c29-28.9,63-43.4,102-43.4c32,0,59,12.3,81.2,37c22.1,24.6,32.3,55,30.4,91.1c-2,39.6-17,73.1-45,100.4
	c-27.9,27.4-61.4,41-100.4,41c-34.7,0-63-11.4-84.8-34.1C705.7,1158,695.6,1129.9,697.3,1096.5z"/>
<path class="st2" d="M948.1,1105.5c0,37.1,8.8,70.7,26.5,100.6c15.8,26.7,38.4,48.3,67.8,64.8h270.2c29.4-16.5,52.2-38.2,68.3-65.2
	c18-30.2,27-63.9,27-101c0-25.3-4.2-48.4-12.6-69.2c-8.4-20.8-20.9-39-37.4-54.8c-16.5-15.8-37.3-28.5-62.3-38.2
	c29.5-14.4,51.6-33,66.5-55.7c14.9-22.7,22.3-48.5,22.3-77.4c0-22.7-4.3-44.1-12.8-64.3c-8.6-20.2-21.7-38.3-39.3-54.4
	c-17.7-16.1-39.8-28.7-66.3-37.8c-26.5-9.1-57.3-13.7-92.4-13.7c-41.6,0-77.9,7.8-109,23.4c-31.1,15.6-54.7,36.5-70.7,62.6
	c-16.1,26.1-24.1,53.9-24.1,83.3c0,61,30.2,105.7,90.6,133.9C985.5,971.9,948.1,1026.2,948.1,1105.5z M1109.2,749.4
	c16.9-17.2,39.3-25.9,67-25.9c18.3,0,34.5,4,48.6,11.9c14.1,8,25.1,18.9,32.9,32.7c7.8,13.9,11.7,29.5,11.7,46.9
	c0,13-2.2,24.8-6.6,35.6c-4.4,10.8-10.7,20-18.8,27.8c-8.1,7.8-17.8,13.9-29.2,18.3c-11.3,4.4-23.9,6.6-37.8,6.6
	c-27.4,0-49.8-8.3-67.2-25c-17.4-16.6-26.1-37.5-26.1-62.6C1083.8,788.8,1092.3,766.7,1109.2,749.4z M1099.7,1018
	c20.3-20,45.5-30.1,75.6-30.1c21.2,0,40.4,4.6,57.5,13.7c17.1,9.1,30.4,22.3,39.8,39.3c9.4,17.1,14.1,37.1,14.1,60.1
	c0,23-4.7,43.3-14.1,61c-9.4,17.7-22.4,31.4-38.9,41.1c-16.5,9.7-35.1,14.6-55.7,14.6c-20.3,0-38.8-4.8-55.3-14.4
	c-16.5-9.6-29.5-23.1-39.1-40.7c-9.6-17.5-14.4-37.8-14.4-60.8C1069.2,1066,1079.4,1038,1099.7,1018z"/>
<g>
	<g>
		<circle class="st3" cx="460.4" cy="823.8" r="145.1"/>
		<path class="st4" d="M442.5,787.6c0,5.8,1.6,10.3,4.8,13.5c3.2,3.2,7.4,4.9,12.7,4.9c5.4,0,9.6-1.6,12.8-4.9
			c3.2-3.3,4.8-7.8,4.8-13.6c0-5.4-1.6-9.8-4.8-13.1c-3.2-3.3-7.4-4.9-12.6-4.9c-5.4,0-9.7,1.7-12.9,5
			C444.1,777.8,442.5,782.1,442.5,787.6z M439.9,852.5c0,8,2,14.2,6,18.7c4,4.5,8.9,6.7,14.9,6.7c5.8,0,10.6-2.2,14.4-6.5
			c3.8-4.3,5.7-10.5,5.7-18.6c0-7.1-1.9-12.8-5.8-17.1c-3.9-4.3-8.8-6.5-14.8-6.5c-6.9,0-12,2.4-15.4,7.3
			C441.5,841.4,439.9,846.7,439.9,852.5z M436.6,816.8c-7.3-3.2-12.6-7.5-15.9-13.1c-3.3-5.5-5-11.6-5-18.2c0-11.3,3.8-20.6,11.5-28
			c7.7-7.4,18.6-11.1,32.7-11.1c14,0,24.8,3.7,32.6,11.1c7.7,7.4,11.6,16.7,11.6,28c0,7-1.8,13.3-5.3,18.8c-3.5,5.5-8.5,9.7-15,12.5
			c8.2,3.4,14.4,8.3,18.6,14.8c4.3,6.5,6.4,13.9,6.4,22.4c0,14-4.3,25.4-13,34.1c-8.7,8.7-20.2,13.1-34.6,13.1
			c-13.4,0-24.5-3.6-33.4-10.8c-10.5-8.6-15.8-20.3-15.8-35.1c0-8.2,2-15.7,5.9-22.6C421.9,825.8,428.2,820.5,436.6,816.8z"/>
	</g>
</g>
<g>
	<g>
		
			<ellipse transform="matrix(0.9732 -0.2298 0.2298 0.9732 -17.3779 225.8482)" class="st5" cx="961.2" cy="187.5" rx="34" ry="34"/>
		<path class="st4" d="M961.2,162.6c13.8,0,25,11.2,25,25c0,13.8-11.2,25-25,25s-25-11.2-25-25C936.2,173.8,947.4,162.6,961.2,162.6
			 M961.2,153.6c-18.8,0-34,15.2-34,34s15.2,34,34,34c18.8,0,34-15.2,34-34S979.9,153.6,961.2,153.6L961.2,153.6z"/>
	</g>
	<g>
		<circle class="st5" cx="1506.3" cy="413.3" r="34"/>
		<path class="st4" d="M1506.3,388.4c6.7,0,12.9,2.6,17.6,7.3c4.7,4.7,7.3,11,7.3,17.6c0,6.7-2.6,12.9-7.3,17.6
			c-4.7,4.7-11,7.3-17.6,7.3c-6.7,0-12.9-2.6-17.6-7.3c-4.7-4.7-7.3-11-7.3-17.6c0-6.7,2.6-12.9,7.3-17.6
			C1493.3,391,1499.6,388.4,1506.3,388.4 M1506.3,379.4c-8.7,0-17.4,3.3-24,9.9c-13.3,13.3-13.3,34.8,0,48c6.6,6.6,15.3,9.9,24,9.9
			c8.7,0,17.4-3.3,24-9.9c13.3-13.3,13.3-34.8,0-48C1523.6,382.7,1514.9,379.4,1506.3,379.4L1506.3,379.4z"/>
	</g>
	<g>
		
			<ellipse transform="matrix(0.9571 -0.2898 0.2898 0.9571 -203.4171 543.0413)" class="st5" cx="1732" cy="958.4" rx="34" ry="34"/>
		<path class="st4" d="M1732,933.5c13.8,0,25,11.2,25,25c0,13.8-11.2,25-25,25c-13.8,0-25-11.2-25-25
			C1707.1,944.7,1718.3,933.5,1732,933.5 M1732,924.5c-18.8,0-34,15.2-34,34s15.2,34,34,34c18.8,0,34-15.2,34-34
			S1750.8,924.5,1732,924.5L1732,924.5z"/>
	</g>
	<g>
		
			<ellipse transform="matrix(0.9239 -0.3827 0.3827 0.9239 -352.2867 145.7785)" class="st5" cx="190.3" cy="958.4" rx="34" ry="34"/>
		<path class="st4" d="M190.3,933.5c13.8,0,25,11.2,25,25c0,13.8-11.2,25-25,25c-13.8,0-25-11.2-25-25
			C165.3,944.7,176.5,933.5,190.3,933.5 M190.3,924.5c-18.8,0-34,15.2-34,34s15.2,34,34,34s34-15.2,34-34S209.1,924.5,190.3,924.5
			L190.3,924.5z"/>
	</g>
	<g>
		<circle class="st5" cx="416.1" cy="413.3" r="34"/>
		<path class="st4" d="M416.1,388.4c6.7,0,12.9,2.6,17.6,7.3c4.7,4.7,7.3,11,7.3,17.6c0,6.7-2.6,12.9-7.3,17.6
			c-4.7,4.7-11,7.3-17.6,7.3c-6.7,0-12.9-2.6-17.6-7.3c-9.7-9.7-9.7-25.6,0-35.3C403.1,391,409.4,388.4,416.1,388.4 M416.1,379.4
			c-8.7,0-17.4,3.3-24,9.9c-13.3,13.3-13.3,34.8,0,48c6.6,6.6,15.3,9.9,24,9.9s17.4-3.3,24-9.9c13.3-13.3,13.3-34.8,0-48
			C433.5,382.7,424.8,379.4,416.1,379.4L416.1,379.4z"/>
	</g>
	<g>
		
			<ellipse transform="matrix(0.9995 -3.286104e-02 3.286104e-02 0.9995 -20.897 55.3467)" class="st5" cx="1673.4" cy="663.4" rx="34" ry="34"/>
		<path class="st4" d="M1673.3,638.5c10.1,0,19.2,6.1,23.1,15.4c5.3,12.7-0.8,27.3-13.5,32.6c-3.1,1.3-6.3,1.9-9.5,1.9
			c-10.1,0-19.2-6.1-23.1-15.4c-5.3-12.7,0.8-27.3,13.5-32.6C1666.9,639.1,1670.1,638.5,1673.3,638.5 M1673.3,629.5
			c-4.3,0-8.7,0.8-13,2.6c-17.3,7.2-25.6,27-18.4,44.4c5.4,13.1,18.1,21,31.4,21c4.3,0,8.7-0.8,13-2.6c17.3-7.2,25.6-27,18.4-44.4
			C1699.3,637.3,1686.7,629.5,1673.3,629.5L1673.3,629.5z"/>
	</g>
	<g>
		
			<ellipse transform="matrix(4.907741e-02 -0.9988 0.9988 4.907741e-02 948.5867 1488.7996)" class="st5" cx="1256.2" cy="246.2" rx="34" ry="34"/>
		<path class="st4" d="M1256.2,221.3c3.3,0,6.5,0.6,9.5,1.9c12.7,5.3,18.8,19.9,13.5,32.6c-3.9,9.4-12.9,15.4-23.1,15.4
			c-3.3,0-6.5-0.6-9.5-1.9c-6.2-2.6-11-7.3-13.5-13.5c-2.6-6.2-2.6-12.9,0-19.1C1237,227.3,1246,221.3,1256.2,221.3 M1256.2,212.3
			c-13.3,0-26,7.9-31.4,21c-7.2,17.3,1.1,37.2,18.4,44.4c4.2,1.8,8.7,2.6,13,2.6c13.3,0,26-7.9,31.4-21c7.2-17.3-1.1-37.2-18.4-44.4
			C1264.9,213.1,1260.5,212.3,1256.2,212.3L1256.2,212.3z"/>
	</g>
	<g>
		<ellipse transform="matrix(0.8339 -0.5519 0.5519 0.8339 -25.2547 408.535)" class="st5" cx="666.2" cy="246.2" rx="34" ry="34"/>
		<path class="st4" d="M666.2,221.3c10.1,0,19.2,6.1,23.1,15.4c5.3,12.7-0.8,27.3-13.5,32.6c-3.1,1.3-6.3,1.9-9.5,1.9
			c-10.1,0-19.2-6.1-23.1-15.4c-5.3-12.7,0.8-27.3,13.5-32.6C659.7,221.9,662.9,221.3,666.2,221.3 M666.2,212.3
			c-4.3,0-8.7,0.8-13,2.6c-17.3,7.2-25.6,27-18.4,44.4c5.4,13.1,18.1,21,31.4,21c4.3,0,8.7-0.8,13-2.6c17.3-7.2,25.6-27,18.4-44.4
			C692.1,220.2,679.5,212.3,666.2,212.3L666.2,212.3z"/>
	</g>
	<g>
		<ellipse transform="matrix(0.1524 -0.9883 0.9883 0.1524 -444.6347 808.4159)" class="st5" cx="249" cy="663.4" rx="34" ry="34"/>
		<path class="st4" d="M249,638.5c3.3,0,6.5,0.6,9.5,1.9c6.2,2.6,11,7.3,13.5,13.5c2.6,6.2,2.6,12.9,0,19.1
			c-3.9,9.4-12.9,15.4-23.1,15.4c-3.3,0-6.5-0.6-9.5-1.9c-12.7-5.3-18.8-19.9-13.5-32.6C229.8,644.5,238.9,638.5,249,638.5
			 M249,629.5c-13.3,0-26,7.9-31.4,21c-7.2,17.3,1.1,37.2,18.4,44.4c4.2,1.8,8.7,2.6,13,2.6c13.3,0,26-7.9,31.4-21
			c7.2-17.3-1.1-37.2-18.4-44.4C257.7,630.3,253.3,629.5,249,629.5L249,629.5z"/>
	</g>
</g>
</svg>
